<svg xmlns="http://www.w3.org/2000/svg" viewBox="0 0 512 512" width="512" height="512" role="img" aria-label="Cloak Of Invisibility icon">
<defs>
  <radialGradient id="bg" cx="50%" cy="38%" r="68%"><stop offset="0%" stop-color="#16324a"/><stop offset="58%" stop-color="#09131f"/><stop offset="100%" stop-color="#03060b"/></radialGradient>
  <linearGradient id="gold" x1="0" y1="0" x2="1" y2="1"><stop offset="0" stop-color="#fff2bd"/><stop offset=".35" stop-color="#d7a84d"/><stop offset="1" stop-color="#6d481d"/></linearGradient>
  <linearGradient id="silver" x1="0" y1="0" x2="1" y2="1"><stop offset="0" stop-color="#ffffff"/><stop offset=".35" stop-color="#94a8ba"/><stop offset="1" stop-color="#263343"/></linearGradient>
  <linearGradient id="blue" x1="0" y1="0" x2="1" y2="1"><stop offset="0" stop-color="#9ff7ff"/><stop offset=".45" stop-color="#278aff"/><stop offset="1" stop-color="#3d2cff"/></linearGradient>
  <linearGradient id="violet" x1="0" y1="0" x2="1" y2="1"><stop offset="0" stop-color="#ffd9ff"/><stop offset=".4" stop-color="#9a52ff"/><stop offset="1" stop-color="#311165"/></linearGradient>
  <filter id="glow" x="-80%" y="-80%" width="260%" height="260%"><feGaussianBlur stdDeviation="7" result="b"/><feMerge><feMergeNode in="b"/><feMergeNode in="SourceGraphic"/></feMerge></filter>
  <filter id="soft" x="-40%" y="-40%" width="180%" height="180%"><feDropShadow dx="0" dy="10" stdDeviation="12" flood-color="#00a7ff" flood-opacity=".35"/><feDropShadow dx="0" dy="2" stdDeviation="2" flood-color="#ffe0a3" flood-opacity=".35"/></filter>
</defs>
<rect width="512" height="512" rx="96" fill="url(#bg)"/>
<circle cx="256" cy="256" r="198" fill="none" stroke="#1b6b9e" stroke-opacity=".25" stroke-width="2"/>
<circle cx="256" cy="256" r="154" fill="none" stroke="#d7a84d" stroke-opacity=".16" stroke-width="2" stroke-dasharray="8 16"/>
<g filter="url(#soft)"><path d="M256 70 C322 78 366 126 374 194 C384 285 425 360 445 430 C373 402 318 401 256 434 C194 401 139 402 67 430 C87 360 128 285 138 194 C146 126 190 78 256 70 Z" fill="#10192a" stroke="url(#gold)" stroke-width="8" opacity=".92"/><path d="M120 405 C178 344 334 344 392 405" fill="none" stroke="url(#blue)" stroke-width="14" filter="url(#glow)"/><path d="M198 164 C232 128 280 128 314 164 C280 178 232 178 198 164 Z" fill="url(#blue)" filter="url(#glow)"/><path d="M155 210 C210 250 302 250 357 210 M139 282 C205 328 307 328 373 282" fill="none" stroke="#9ff7ff" stroke-opacity=".45" stroke-width="7"/></g>
<path d="M86 425 C148 454 364 454 426 425" fill="none" stroke="#66d9ff" stroke-opacity=".22" stroke-width="5"/>
</svg>